<?xml version="1.0" standalone="no"?>
<!DOCTYPE svg PUBLIC "-//W3C//DTD SVG 1.1//EN" "http://www.w3.org/Graphics/SVG/1.1/DTD/svg11.dtd" >
<svg xmlns="http://www.w3.org/2000/svg" xmlns:xlink="http://www.w3.org/1999/xlink" version="1.1">
<metadata></metadata>
<defs>
<font id="cirquaregular" horiz-adv-x="1387" >
<font-face units-per-em="2048" ascent="1565" descent="-483" />
<missing-glyph horiz-adv-x="750" />
<glyph horiz-adv-x="0" />
<glyph unicode="&#xd;" horiz-adv-x="120" />
<glyph unicode=" "  horiz-adv-x="750" />
<glyph unicode="&#x09;" horiz-adv-x="750" />
<glyph unicode="&#xa0;" horiz-adv-x="750" />
<glyph unicode="," horiz-adv-x="426" d="M77 67q14 -43 52 -68t83 -21q-12 -55 -44 -105.5t-82 -98.5l41 -25q112 68 175.5 188.5t29.5 214.5q-13 41 -51 66q-36 25 -82 23q-21 0 -41 -6q-52 -18 -75 -66.5t-6 -101.5z" />
<glyph unicode="." horiz-adv-x="383" d="M60 104q0 -53 39 -92t92.5 -39t92.5 39t39 92q0 54 -39 93t-92.5 39t-92.5 -39t-39 -93z" />
<glyph unicode=":" horiz-adv-x="383" d="M60 104q0 -53 39 -92t92.5 -39t92.5 39t39 92q0 54 -39 93t-92.5 39t-92.5 -39t-39 -93zM60 892q0 -53 39 -92t92.5 -39t92.5 39t39 92q0 54 -39 93t-92.5 39t-92.5 -39t-39 -93z" />
<glyph unicode=";" horiz-adv-x="426" d="M66 892q0 -53 39 -92t92.5 -39t92.5 39t39 92q0 54 -39 93t-92.5 39t-92.5 -39t-39 -93zM77 67q14 -43 52 -68t83 -21q-12 -55 -44 -105.5t-82 -98.5l41 -25q112 68 175.5 188.5t29.5 214.5q-13 41 -51 66q-36 25 -82 23q-21 0 -41 -6q-52 -18 -75 -66.5t-6 -101.5z" />
<glyph unicode="A" d="M64 498q6 -222 183 -374t448 -152q104 0 206.5 34.5t172.5 91.5v-98h253v498q0 143 -85 264.5t-230 191.5q-145 71 -317 71t-318.5 -70.5t-231.5 -192.5q-81 -116 -81 -251v-13zM316 498v7q0 126 109 216q112 93 270 93q157 0 266.5 -92.5t112.5 -223.5v-9 q0 -123 -108 -213q-112 -93 -271 -93q-156 0 -265.5 92t-113.5 223z" />
<glyph unicode="B" d="M60 1510q1 -165 1 -1012q0 -142 84.5 -264t229.5 -192t317 -70t319 70t231 192q82 118 82 254v10q-6 223 -183 375t-449 152q-104 0 -207 -35.5t-173 -92.5v613h-252zM313 498v7q0 126 109 216q112 93 270 93q157 0 266.5 -92.5t112.5 -223.5v-9q-1 -123 -109 -213 q-112 -93 -270 -93q-156 0 -265.5 92t-113.5 223z" />
<glyph unicode="C" horiz-adv-x="1322" d="M64 498v-13q0 -135 81 -251q85 -122 231.5 -192t318.5 -70q184 0 333 79.5t231 215.5l-240 73q-53 -72 -137 -114.5t-187 -42.5q-158 0 -270 93q-109 91 -109 215v7q4 131 113 223.5t266 92.5q104 0 194.5 -43t138.5 -115l234 84q-76 128 -231 206.5t-336 78.5 q-128 0 -244 -42t-199.5 -112.5t-134 -167.5t-53.5 -205z" />
<glyph unicode="D" horiz-adv-x="1227" d="M60 0h610q207 0 352 144.5t145 352t-145 352.5t-352 145h-610v-994zM313 211v572h314q120 0 203 -84t83 -203t-83 -202t-203 -83h-314z" />
<glyph unicode="E" horiz-adv-x="1321" d="M63 496v-10q0 -136 82 -253q85 -122 231.5 -191.5t317.5 -69.5q184 0 331.5 79.5t232.5 216.5l-241 72q-53 -73 -137 -115t-186 -42q-130 0 -233.5 67t-134.5 169h700v158h-696q34 103 134 169t230 66q103 0 193.5 -43t138.5 -114l235 85q-77 129 -231 206t-336 77 q-128 0 -243.5 -41.5t-198.5 -112.5t-134 -167.5t-55 -205.5z" />
<glyph unicode="F" horiz-adv-x="929" d="M60 0h254v441h485v158h-485v185h555v210h-809v-994z" />
<glyph unicode="G" horiz-adv-x="1332" d="M64 497v-13q0 -135 81 -252q85 -121 231.5 -191t318.5 -70q216 0 365 119v-90h212v480h-505v-158h238q-53 -66 -133.5 -103.5t-176.5 -37.5q-157 0 -269 93q-110 91 -110 216v7q4 131 113.5 223.5t265.5 92.5q105 0 195.5 -43.5t138.5 -114.5l234 85q-76 128 -231 206 t-337 78q-128 0 -244 -42t-199.5 -112.5t-134 -167.5t-53.5 -205z" />
<glyph unicode="H" horiz-adv-x="1212" d="M60 0h252v441h588v-441h252v994h-252v-395h-588v395h-252v-994z" />
<glyph unicode="I" horiz-adv-x="372" d="M60 0h252v994h-252v-994z" />
<glyph unicode="J" horiz-adv-x="634" d="M60 7q90 -35 183 -35q154 0 242.5 104t88.5 246v672h-253v-648q0 -173 -139 -173q-28 0 -62 7z" />
<glyph unicode="K" horiz-adv-x="1179" d="M60 0h253v341l416 -341h390l-668 526l570 468h-388l-320 -306v306h-253v-994z" />
<glyph unicode="L" horiz-adv-x="974" d="M60 0h854v210h-601v784h-253v-994z" />
<glyph unicode="M" horiz-adv-x="1978" d="M60 -1h254v540q0 114 79 193.5t192 79.5t193 -79.5t80 -193.5v-540h257v540q0 114 79.5 193.5t193 79.5t193 -79.5t79.5 -193.5v-540h258v497q0 145 -64.5 265.5t-181 191.5t-259.5 71q-135 0 -246 -63.5t-178 -173.5q-68 110 -178.5 173.5t-246.5 63.5 q-143 0 -259.5 -71t-180.5 -191.5t-64 -265.5v-497z" />
<glyph unicode="N" horiz-adv-x="1260" d="M60 0h254v497q0 131 91.5 222.5t222.5 91.5t222.5 -91.5t91.5 -222.5v-497h258v455q0 155 -76 286t-207 207t-286.5 76t-287 -76t-207.5 -207t-76 -286v-455z" />
<glyph unicode="O" horiz-adv-x="1389" d="M63 498v-10q-1 -136 81 -254q84 -122 231.5 -192t318.5 -70q129 0 244.5 41.5t199.5 112.5t134 168t54 204v10q0 136 -82 254q-84 122 -231 192t-319 70q-128 0 -244 -41.5t-199.5 -112t-133.5 -167.5t-54 -205zM316 498q3 131 112.5 223.5t265.5 92.5q158 0 270 -93 q109 -90 109 -214v-9q-3 -131 -112.5 -223.5t-266.5 -92.5q-158 0 -270 93q-109 90 -108 214v9z" />
<glyph unicode="P" d="M60 -513q1 165 1 1012q0 142 84.5 264t229.5 192t317 70t319 -70t231 -192q82 -118 82 -254v-10q-6 -223 -183 -375t-449 -152q-104 0 -207 35.5t-173 92.5v-613h-252zM313 499v-7q0 -126 109 -216q112 -93 270 -93q157 0 266.5 92.5t112.5 223.5v9q-1 123 -109 213 q-112 93 -270 93q-156 0 -265.5 -92t-113.5 -223z" />
<glyph unicode="Q" horiz-adv-x="1384" d="M63 496v-10q0 -136 81 -254q85 -121 231 -195q146 -65 317 -65t601 28v182h-119q142 133 146 314v13q0 135 -80 251q-84 121 -230 190.5t-318 69.5q-128 0 -243 -41t-198.5 -111.5t-133.5 -167.5t-54 -204zM314 496q4 130 113 222.5t265 92.5q158 0 270 -93 q108 -90 108 -213v-9q-3 -130 -112 -222t-266 -92t-269 92q-109 91 -109 215v7z" />
<glyph unicode="R" horiz-adv-x="772" d="M60 0h254v481q0 314 314 314q50 0 94 -14v236q-45 7 -91 7q-571 -1 -571 -569v-455z" />
<glyph unicode="S" horiz-adv-x="966" d="M60 182l53 -210q171 0 297 70q124 70 178 192q33 74 33 156q0 53 -13 109q-8 34 -7 65q0 90 63 158q86 92 242 92l-55 210q-261 0 -403 -153q-105 -113 -104 -261q0 -53 13 -111q8 -34 8 -65q0 -90 -64 -159q-86 -93 -241 -93z" />
<glyph unicode="T" horiz-adv-x="1153" d="M60 785h391v-785h252v785h390v209h-1033v-209z" />
<glyph unicode="U" horiz-adv-x="1260" d="M60 539v455h254v-497q0 -131 91.5 -222.5t222.5 -91.5t222.5 91.5t91.5 222.5v497h258v-455q0 -155 -76 -286t-207 -207t-286.5 -76t-287 76t-207.5 207t-76 286z" />
<glyph unicode="V" horiz-adv-x="1341" d="M60 994l455 -994h311l455 994h-283l-327 -784l-328 784h-283z" />
<glyph unicode="W" horiz-adv-x="1978" d="M60 497v497h254v-540q0 -114 79 -193.5t192 -79.5t193 79.5t80 193.5v540h257v-540q0 -114 79.5 -193.5t193 -79.5t193 79.5t79.5 193.5v540h258v-497q0 -145 -64.5 -265.5t-181 -191.5t-259.5 -71q-135 0 -246 63.5t-178 173.5q-68 -110 -178.5 -173.5t-246.5 -63.5 q-143 0 -259.5 71t-180.5 191.5t-64 265.5z" />
<glyph unicode="X" horiz-adv-x="1421" d="M60 0h330l321 342l320 -342h330l-491 526l425 468h-327l-257 -307l-258 307h-328l425 -468z" />
<glyph unicode="Y" horiz-adv-x="1246" d="M60 994l436 -579v-415h253v415l437 579h-305l-259 -377l-257 377h-305z" />
<glyph unicode="Z" horiz-adv-x="1146" d="M60 0h1026v210h-643l611 638v146h-969v-210h586l-611 -638v-146z" />
<glyph unicode="`" horiz-adv-x="510" d="M0 1373l183 132l327 -405l-147 -105z" />
<glyph unicode="a" d="M64 498q6 -222 183 -374t448 -152q104 0 206.5 34.5t172.5 91.5v-98h253v498q0 143 -85 264.5t-230 191.5q-145 71 -317 71t-318.5 -70.5t-231.5 -192.5q-81 -116 -81 -251v-13zM316 498v7q0 126 109 216q112 93 270 93q157 0 266.5 -92.5t112.5 -223.5v-9 q0 -123 -108 -213q-112 -93 -271 -93q-156 0 -265.5 92t-113.5 223z" />
<glyph unicode="b" d="M60 1510q1 -165 1 -1012q0 -142 84.5 -264t229.5 -192t317 -70t319 70t231 192q82 118 82 254v10q-6 223 -183 375t-449 152q-104 0 -207 -35.5t-173 -92.5v613h-252zM313 498v7q0 126 109 216q112 93 270 93q157 0 266.5 -92.5t112.5 -223.5v-9q-1 -123 -109 -213 q-112 -93 -270 -93q-156 0 -265.5 92t-113.5 223z" />
<glyph unicode="c" horiz-adv-x="1322" d="M64 498v-13q0 -135 81 -251q85 -122 231.5 -192t318.5 -70q184 0 333 79.5t231 215.5l-240 73q-53 -72 -137 -114.5t-187 -42.5q-158 0 -270 93q-109 91 -109 215v7q4 131 113 223.5t266 92.5q104 0 194.5 -43t138.5 -115l234 84q-76 128 -231 206.5t-336 78.5 q-128 0 -244 -42t-199.5 -112.5t-134 -167.5t-53.5 -205z" />
<glyph unicode="d" d="M63 498q6 223 183 375t449 152q104 0 207 -35.5t173 -92.5v613h252q-1 -165 -1 -1012q0 -142 -84.5 -264t-229.5 -192t-317 -70t-319 70q-148 70 -232 192q-82 118 -81 254v10zM316 498v-9q0 -123 108 -213q112 -93 271 -93q156 0 265.5 92t113.5 223v7q0 126 -109 216 q-112 93 -270 93q-157 0 -266.5 -92.5t-112.5 -223.5z" />
<glyph unicode="e" horiz-adv-x="1389" d="M64 498v-13q0 -135 81 -250q85 -121 231 -191t319 -72h12q215 0 359 68q148 70 228 174l-239 74q-121 -106 -321 -106q-19 0 -39 1q-142 6 -247 77t-127 180h743h256q6 31 6 58v10q0 136 -82 254q-84 122 -231 192t-318 70q-129 0 -244.5 -41.5t-199 -112t-134 -167.5 t-53.5 -205zM337 596q41 96 138 157t220 61q124 0 225.5 -61.5t136.5 -156.5h-720z" />
<glyph unicode="f" horiz-adv-x="752" d="M60 836h118v-836h253v836h218v158h-218v162q0 173 139 173q28 0 62 -7l60 173q-90 35 -183 35q-154 0 -242.5 -104t-88.5 -246v-186h-118v-158z" />
<glyph unicode="g" horiz-adv-x="1385" d="M63 498q6 -222 183 -374t448 -152q104 0 207 34.5t173 92.5v-107q0 -130 -107 -222.5t-262 -92.5q-122 0 -216.5 58.5t-132.5 150.5l-238 -72q63 -155 223.5 -251t363.5 -96q260 0 440 153.5t180 371.5v506q0 142 -85 265q-83 122 -229 191t-317 70h-3q-170 0 -315 -70 q-147 -70 -232 -192q-81 -117 -81 -254v-10zM315 498v7q0 125 109 216q112 93 270 93q157 0 266.5 -92.5t113.5 -223.5v-7q0 -124 -110 -215q-112 -93 -270 -93q-156 0 -265.5 92t-113.5 223z" />
<glyph unicode="h" horiz-adv-x="1258" d="M60 0h254v497q0 130 91.5 221.5t222 91.5t222 -91.5t91.5 -221.5v-497h257v455q0 156 -70 286t-195.5 206t-279.5 76q-194 0 -339 -118v625h-254v-1530z" />
<glyph unicode="i" horiz-adv-x="451" d="M60 1363q0 -67 49 -116t116.5 -49t116.5 49t49 116q0 69 -49 118t-116.5 49t-116.5 -49t-49 -118zM99 0h253v994h-253v-994z" />
<glyph unicode="j" horiz-adv-x="673" d="M60 -498q90 -35 183 -35q154 0 242.5 104t88.5 246v1177h-253v-1153q0 -173 -139 -173q-28 0 -62 7zM282 1363q0 -67 49 -116t116.5 -49t116.5 49t49 116q0 69 -49 118t-116.5 49t-116.5 -49t-49 -118z" />
<glyph unicode="k" horiz-adv-x="1180" d="M60 0h253v342l416 -342h391l-669 526l570 468h-388l-320 -306v822h-253v-1510z" />
<glyph unicode="l" horiz-adv-x="373" d="M60 0h253v1510h-253v-1510z" />
<glyph unicode="m" horiz-adv-x="1978" d="M60 -1h254v540q0 114 79 193.5t192 79.5t193 -79.5t80 -193.5v-540h257v540q0 114 79.5 193.5t193 79.5t193 -79.5t79.5 -193.5v-540h258v497q0 145 -64.5 265.5t-181 191.5t-259.5 71q-135 0 -246 -63.5t-178 -173.5q-68 110 -178.5 173.5t-246.5 63.5 q-143 0 -259.5 -71t-180.5 -191.5t-64 -265.5v-497z" />
<glyph unicode="n" horiz-adv-x="1260" d="M60 0h254v497q0 131 91.5 222.5t222.5 91.5t222.5 -91.5t91.5 -222.5v-497h258v455q0 155 -76 286t-207 207t-286.5 76t-287 -76t-207.5 -207t-76 -286v-455z" />
<glyph unicode="o" horiz-adv-x="1389" d="M63 498v-10q-1 -136 81 -254q84 -122 231.5 -192t318.5 -70q129 0 244.5 41.5t199.5 112.5t134 168t54 204v10q0 136 -82 254q-84 122 -231 192t-319 70q-128 0 -244 -41.5t-199.5 -112t-133.5 -167.5t-54 -205zM316 498q3 131 112.5 223.5t265.5 92.5q158 0 270 -93 q109 -90 109 -214v-9q-3 -131 -112.5 -223.5t-266.5 -92.5q-158 0 -270 93q-109 90 -108 214v9z" />
<glyph unicode="p" d="M60 -513q1 165 1 1012q0 142 84.5 264t229.5 192t317 70t319 -70t231 -192q82 -118 82 -254v-10q-6 -223 -183 -375t-449 -152q-104 0 -207 35.5t-173 92.5v-613h-252zM313 499v-7q0 -125 109 -216q112 -93 270 -93q157 0 266.5 92.5t112.5 223.5v9q0 123 -109 213 q-112 93 -270 93q-156 0 -265.5 -92t-113.5 -223z" />
<glyph unicode="q" d="M63 499q6 -223 183 -375t449 -152q104 0 207 35.5t173 92.5v-613h252q-1 165 -1 1012q0 142 -84.5 264t-229.5 192t-317 70t-319 -70t-232 -192q-81 -118 -81 -254v-10zM316 499v9q0 123 108 213q113 93 271 93q156 0 265.5 -92t113.5 -223v-7q0 -125 -109 -216 q-112 -93 -270 -93q-157 0 -266.5 92.5t-112.5 223.5z" />
<glyph unicode="r" horiz-adv-x="772" d="M60 0h254v481q0 314 314 314q50 0 94 -14v236q-45 7 -91 7q-571 -1 -571 -569v-455z" />
<glyph unicode="s" horiz-adv-x="966" d="M60 182l53 -210q171 0 297 70q124 70 178 192q33 74 33 156q0 53 -13 109q-8 34 -7 65q0 90 63 158q86 92 242 92l-55 210q-261 0 -403 -153q-105 -113 -104 -261q0 -53 13 -111q8 -34 8 -65q0 -90 -64 -159q-86 -93 -241 -93z" />
<glyph unicode="t" horiz-adv-x="752" d="M60 836v158h118v318h253v-318h218v-158h-218v-490q0 -173 139 -173q28 0 62 7l60 -173q-90 -35 -183 -35q-154 0 -242.5 104t-88.5 246v514h-118z" />
<glyph unicode="u" horiz-adv-x="1260" d="M60 541v455h254v-497q0 -131 91.5 -222.5t222.5 -91.5t222.5 91.5t91.5 222.5v497h258v-455q0 -155 -76 -286t-207 -207t-286.5 -76t-287 76t-207.5 207t-76 286z" />
<glyph unicode="v" horiz-adv-x="1341" d="M60 994l455 -994h311l455 994h-283l-327 -784l-328 784h-283z" />
<glyph unicode="w" horiz-adv-x="1978" d="M60 497v497h254v-540q0 -114 79 -193.5t192 -79.5t193 79.5t80 193.5v540h257v-540q0 -114 79.5 -193.5t193 -79.5t193 79.5t79.5 193.5v540h258v-497q0 -145 -64.5 -265.5t-181 -191.5t-259.5 -71q-135 0 -246 63.5t-178 173.5q-68 -110 -178.5 -173.5t-246.5 -63.5 q-143 0 -259.5 71t-180.5 191.5t-64 265.5z" />
<glyph unicode="x" horiz-adv-x="1421" d="M60 0h330l321 342l320 -342h330l-491 526l425 468h-327l-257 -307l-258 307h-328l425 -468z" />
<glyph unicode="y" horiz-adv-x="1257" d="M60 540q0 -156 70 -286t195.5 -205.5t279.5 -75.5q195 0 340 117v-98q0 -136 -82.5 -225.5t-233.5 -89.5q-115 0 -192 53.5t-106 144.5l-238 -71q56 -151 198 -244t338 -93q255 0 411 150.5t156 374.5q0 171 0.5 497.5t0.5 504.5h-253v-496q0 -130 -91.5 -221.5 t-222 -91.5t-222 91.5t-91.5 221.5v496h-257v-454z" />
<glyph unicode="z" horiz-adv-x="1146" d="M60 0h1026v210h-643l611 638v146h-969v-210h586l-611 -638v-146z" />
<glyph unicode="&#xa8;" horiz-adv-x="761" d="M0 1126q0 -53 39 -92t92.5 -39t92.5 39t39 92q0 54 -39 93t-92.5 39t-92.5 -39t-39 -93zM498 1126q0 -53 39 -92t92.5 -39t92.5 39t39 92q0 54 -39 93t-92.5 39t-92.5 -39t-39 -93z" />
<glyph unicode="&#xb4;" horiz-adv-x="510" d="M0 1100l147 -105l363 378l-183 132z" />
<glyph unicode="&#xb8;" horiz-adv-x="386" d="M0 -372l152 -54l234 374l-189 68z" />
<glyph unicode="&#xc0;" d="M64 498q6 -222 183 -374t448 -152q104 0 206.5 34.5t172.5 91.5v-98h253v498q0 143 -85 264.5t-230 191.5q-145 71 -317 71t-318.5 -70.5t-231.5 -192t-81 -264.5zM316 498q-3 130 109 223t270 93q157 0 266.5 -92.5t112.5 -223.5q4 -129 -108.5 -222t-270.5 -93 q-156 0 -265.5 92t-113.5 223zM439 1484l183 132l327 -405l-147 -105z" />
<glyph unicode="&#xc1;" d="M64 498q6 -222 183 -374t448 -152q104 0 206.5 34.5t172.5 91.5v-98h253v498q0 143 -85 264.5t-230 191.5q-145 71 -317 71t-318.5 -70.5t-231.5 -192t-81 -264.5zM316 498q-3 130 109 223t270 93q157 0 266.5 -92.5t112.5 -223.5q4 -129 -108.5 -222t-270.5 -93 q-156 0 -265.5 92t-113.5 223zM439 1209l147 -105l363 378l-183 132z" />
<glyph unicode="&#xc2;" d="M64 498q6 -222 183 -374t448 -152q104 0 206.5 34.5t172.5 91.5v-98h253v498q0 143 -85 264.5t-230 191.5q-145 71 -317 71t-318.5 -70.5t-231.5 -192t-81 -264.5zM257 1100h245l191 208l191 -208h247l-321 388h-233zM316 498q-3 130 109 223t270 93q157 0 266.5 -92.5 t112.5 -223.5q4 -129 -108.5 -222t-270.5 -93q-156 0 -265.5 92t-113.5 223z" />
<glyph unicode="&#xc3;" d="M64 498q6 -222 183 -374t448 -152q104 0 206.5 34.5t172.5 91.5v-98h253v498q0 143 -85 264.5t-230 191.5q-145 71 -317 71t-318.5 -70.5t-231.5 -192t-81 -264.5zM275 1142l15 56q25 96 109 147q83 50 179 25l244 -62q37 -7 73 11q33 21 41 58l175 -46l-13 -56 q-24 -95 -109 -143q-83 -51 -178 -26l-246 61q-37 10 -71 -9q-35 -21 -43 -61zM316 498q-3 130 109 223t270 93q157 0 266.5 -92.5t112.5 -223.5q4 -129 -108.5 -222t-270.5 -93q-156 0 -265.5 92t-113.5 223z" />
<glyph unicode="&#xc4;" d="M64 498q6 -222 183 -374t448 -152q104 0 206.5 34.5t172.5 91.5v-98h253v498q0 143 -85 264.5t-230 191.5q-145 71 -317 71t-318.5 -70.5t-231.5 -192t-81 -264.5zM314 1234q0 -53 39 -92t92.5 -39t92.5 39t39 92q0 54 -39 93t-92.5 39t-92.5 -39t-39 -93zM316 498 q-3 130 109 223t270 93q157 0 266.5 -92.5t112.5 -223.5q4 -129 -108.5 -222t-270.5 -93q-156 0 -265.5 92t-113.5 223zM812 1234q0 -53 39 -92t92.5 -39t92.5 39t39 92q0 54 -39 93t-92.5 39t-92.5 -39t-39 -93z" />
<glyph unicode="&#xc5;" d="M64 498q6 -222 183 -374t448 -152q104 0 206.5 34.5t172.5 91.5v-98h253v498q0 143 -85 264.5t-230 191.5q-145 71 -317 71t-318.5 -70.5t-231.5 -192t-81 -264.5zM316 498q-3 130 109 223t270 93q157 0 266.5 -92.5t112.5 -223.5q4 -129 -108.5 -222t-270.5 -93 q-156 0 -265.5 92t-113.5 223zM377 1365q-1 -72 41 -133.5t116.5 -97t159.5 -35.5q65 0 123.5 21.5t101 57t67.5 84.5t27 103q2 72 -41 133t-117 96t-161 35q-64 0 -122.5 -21t-100 -56t-67 -84t-27.5 -103zM545 1362q1 50 44 84.5t104 34.5q63 0 107.5 -34.5t42.5 -84.5 q-2 -48 -44.5 -83t-105.5 -35q-62 0 -106.5 35t-41.5 83z" />
<glyph unicode="&#xc7;" horiz-adv-x="1322" d="M64 498q-4 -142 81 -264t231.5 -192t318.5 -70q184 0 333 79.5t231 215.5l-240 73q-53 -72 -137 -114.5t-187 -42.5q-158 0 -270 93t-109 222q4 131 113 223.5t266 92.5q104 0 194.5 -43t138.5 -115l234 84q-76 128 -231 206.5t-336 78.5q-128 0 -244 -42t-199.5 -112.5 t-134 -167.5t-53.5 -205zM403 -451l152 -54l234 374l-189 68z" />
<glyph unicode="&#xc8;" horiz-adv-x="1321" d="M63 496q-3 -141 82 -263t231.5 -191.5t317.5 -69.5q184 0 331.5 79.5t232.5 216.5l-241 72q-53 -73 -137 -115t-186 -42q-130 0 -233.5 67t-134.5 169h700v158h-696q34 103 134 169t230 66q103 0 193.5 -43t138.5 -114l235 85q-77 129 -231 206t-336 77 q-128 0 -243.5 -41.5t-198.5 -112.5t-134 -167.5t-55 -205.5zM405 1482l183 132l327 -405l-147 -105z" />
<glyph unicode="&#xc9;" horiz-adv-x="1321" d="M63 496q-3 -141 82 -263t231.5 -191.5t317.5 -69.5q184 0 331.5 79.5t232.5 216.5l-241 72q-53 -73 -137 -115t-186 -42q-130 0 -233.5 67t-134.5 169h700v158h-696q34 103 134 169t230 66q103 0 193.5 -43t138.5 -114l235 85q-77 129 -231 206t-336 77 q-128 0 -243.5 -41.5t-198.5 -112.5t-134 -167.5t-55 -205.5zM405 1204l147 -105l363 378l-183 132z" />
<glyph unicode="&#xca;" horiz-adv-x="1321" d="M63 496q-3 -141 82 -263t231.5 -191.5t317.5 -69.5q184 0 331.5 79.5t232.5 216.5l-241 72q-53 -73 -137 -115t-186 -42q-130 0 -233.5 67t-134.5 169h700v158h-696q34 103 134 169t230 66q103 0 193.5 -43t138.5 -114l235 85q-77 129 -231 206t-336 77 q-128 0 -243.5 -41.5t-198.5 -112.5t-134 -167.5t-55 -205.5zM223 1101h245l191 208l191 -208h247l-321 388h-233z" />
<glyph unicode="&#xcb;" horiz-adv-x="1321" d="M63 496q-3 -141 82 -263t231.5 -191.5t317.5 -69.5q184 0 331.5 79.5t232.5 216.5l-241 72q-53 -73 -137 -115t-186 -42q-130 0 -233.5 67t-134.5 169h700v158h-696q34 103 134 169t230 66q103 0 193.5 -43t138.5 -114l235 85q-77 129 -231 206t-336 77 q-128 0 -243.5 -41.5t-198.5 -112.5t-134 -167.5t-55 -205.5zM280 1235q0 -53 39 -92t92.5 -39t92.5 39t39 92q0 54 -39 93t-92.5 39t-92.5 -39t-39 -93zM778 1235q0 -53 39 -92t92.5 -39t92.5 39t39 92q0 54 -39 93t-92.5 39t-92.5 -39t-39 -93z" />
<glyph unicode="&#xcc;" horiz-adv-x="372" d="M-69 1474l183 132l327 -405l-147 -105zM60 0h252v994h-252v-994z" />
<glyph unicode="&#xcd;" horiz-adv-x="372" d="M-69 1205l147 -105l363 378l-183 132zM60 0h252v994h-252v-994z" />
<glyph unicode="&#xce;" horiz-adv-x="372" d="M-251 1099h245l191 208l191 -208h247l-321 388h-233zM60 0h252v994h-252v-994z" />
<glyph unicode="&#xcf;" horiz-adv-x="372" d="M-194 1230q0 -53 39 -92t92.5 -39t92.5 39t39 92q0 54 -39 93t-92.5 39t-92.5 -39t-39 -93zM60 0h252v994h-252v-994zM304 1230q0 -53 39 -92t92.5 -39t92.5 39t39 92q0 54 -39 93t-92.5 39t-92.5 -39t-39 -93z" />
<glyph unicode="&#xd1;" horiz-adv-x="1260" d="M60 0h254v497q0 131 91.5 222.5t222.5 91.5t222.5 -91.5t91.5 -222.5v-497h258v455q0 155 -76 286t-207 207t-286.5 76t-287 -76t-207.5 -207t-76 -286v-455zM217 1145l15 56q25 96 109 147q83 50 179 25l244 -62q37 -7 73 11q33 21 41 58l175 -46l-13 -56 q-24 -95 -109 -143q-83 -51 -178 -26l-246 61q-37 10 -71 -9q-35 -21 -43 -61z" />
<glyph unicode="&#xd2;" horiz-adv-x="1389" d="M63 498q-3 -143 81.5 -264.5t231.5 -191.5t318 -70q129 0 244.5 41.5t199.5 112.5t134 168t54 204q3 143 -81.5 264.5t-231.5 191.5t-319 70q-128 0 -244 -41.5t-199.5 -112t-133.5 -167.5t-54 -205zM316 498q3 131 112.5 223.5t265.5 92.5q158 0 270.5 -93t108.5 -223 q-3 -131 -112.5 -223.5t-266.5 -92.5t-269.5 93t-108.5 223zM439 1477l183 132l327 -405l-147 -105z" />
<glyph unicode="&#xd3;" horiz-adv-x="1389" d="M63 498q-3 -143 81.5 -264.5t231.5 -191.5t318 -70q129 0 244.5 41.5t199.5 112.5t134 168t54 204q3 143 -81.5 264.5t-231.5 191.5t-319 70q-128 0 -244 -41.5t-199.5 -112t-133.5 -167.5t-54 -205zM316 498q3 131 112.5 223.5t265.5 92.5q158 0 270.5 -93t108.5 -223 q-3 -131 -112.5 -223.5t-266.5 -92.5t-269.5 93t-108.5 223zM439 1202l147 -105l363 378l-183 132z" />
<glyph unicode="&#xd4;" horiz-adv-x="1389" d="M63 498q-3 -143 81.5 -264.5t231.5 -191.5t318 -70q129 0 244.5 41.5t199.5 112.5t134 168t54 204q3 143 -81.5 264.5t-231.5 191.5t-319 70q-128 0 -244 -41.5t-199.5 -112t-133.5 -167.5t-54 -205zM257 1099h245l191 208l191 -208h247l-321 388h-233zM316 498 q3 131 112.5 223.5t265.5 92.5q158 0 270.5 -93t108.5 -223q-3 -131 -112.5 -223.5t-266.5 -92.5t-269.5 93t-108.5 223z" />
<glyph unicode="&#xd5;" horiz-adv-x="1389" d="M63 498q-3 -143 81.5 -264.5t231.5 -191.5t318 -70q129 0 244.5 41.5t199.5 112.5t134 168t54 204q3 143 -81.5 264.5t-231.5 191.5t-319 70q-128 0 -244 -41.5t-199.5 -112t-133.5 -167.5t-54 -205zM284 1142l15 56q25 96 109 147q83 50 179 25l244 -62q37 -7 73 11 q33 21 41 58l175 -46l-13 -56q-24 -95 -109 -143q-83 -51 -178 -26l-246 61q-37 10 -71 -9q-35 -21 -43 -61zM316 498q3 131 112.5 223.5t265.5 92.5q158 0 270.5 -93t108.5 -223q-3 -131 -112.5 -223.5t-266.5 -92.5t-269.5 93t-108.5 223z" />
<glyph unicode="&#xd6;" horiz-adv-x="1389" d="M63 498q-3 -143 81.5 -264.5t231.5 -191.5t318 -70q129 0 244.5 41.5t199.5 112.5t134 168t54 204q3 143 -81.5 264.5t-231.5 191.5t-319 70q-128 0 -244 -41.5t-199.5 -112t-133.5 -167.5t-54 -205zM314 1230q0 -53 39 -92t92.5 -39t92.5 39t39 92q0 54 -39 93t-92.5 39 t-92.5 -39t-39 -93zM316 498q3 131 112.5 223.5t265.5 92.5q158 0 270.5 -93t108.5 -223q-3 -131 -112.5 -223.5t-266.5 -92.5t-269.5 93t-108.5 223zM812 1230q0 -53 39 -92t92.5 -39t92.5 39t39 92q0 54 -39 93t-92.5 39t-92.5 -39t-39 -93z" />
<glyph unicode="&#xd9;" horiz-adv-x="1260" d="M60 539v455h254v-497q0 -131 91.5 -222.5t222.5 -91.5t222.5 91.5t91.5 222.5v497h258v-455q0 -155 -76 -286t-207 -207t-286.5 -76t-287 76t-207.5 207t-76 286zM375 1477l183 132l327 -405l-147 -105z" />
<glyph unicode="&#xda;" horiz-adv-x="1260" d="M60 539v455h254v-497q0 -131 91.5 -222.5t222.5 -91.5t222.5 91.5t91.5 222.5v497h258v-455q0 -155 -76 -286t-207 -207t-286.5 -76t-287 76t-207.5 207t-76 286zM375 1202l147 -105l363 378l-183 132z" />
<glyph unicode="&#xdb;" horiz-adv-x="1260" d="M60 539v455h254v-497q0 -131 91.5 -222.5t222.5 -91.5t222.5 91.5t91.5 222.5v497h258v-455q0 -155 -76 -286t-207 -207t-286.5 -76t-287 76t-207.5 207t-76 286zM193 1099h245l191 208l191 -208h247l-321 388h-233z" />
<glyph unicode="&#xdc;" horiz-adv-x="1260" d="M60 539v455h254v-497q0 -131 91.5 -222.5t222.5 -91.5t222.5 91.5t91.5 222.5v497h258v-455q0 -155 -76 -286t-207 -207t-286.5 -76t-287 76t-207.5 207t-76 286zM250 1227q0 -53 39 -92t92.5 -39t92.5 39t39 92q0 54 -39 93t-92.5 39t-92.5 -39t-39 -93zM748 1227 q0 -53 39 -92t92.5 -39t92.5 39t39 92q0 54 -39 93t-92.5 39t-92.5 -39t-39 -93z" />
<glyph unicode="&#xdd;" horiz-adv-x="1246" d="M60 994l436 -579v-415h253v415l437 579h-305l-259 -377l-257 377h-305zM368 1202l147 -105l363 378l-183 132z" />
<glyph unicode="&#xe0;" d="M64 498q6 -222 183 -374t448 -152q104 0 206.5 34.5t172.5 91.5v-98h253v498q0 143 -85 264.5t-230 191.5q-145 71 -317 71t-318.5 -70.5t-231.5 -192t-81 -264.5zM316 498q-3 130 109 223t270 93q157 0 266.5 -92.5t112.5 -223.5q4 -129 -108.5 -222t-270.5 -93 q-156 0 -265.5 92t-113.5 223zM439 1478l183 132l327 -405l-147 -105z" />
<glyph unicode="&#xe1;" d="M64 498q6 -222 183 -374t448 -152q104 0 206.5 34.5t172.5 91.5v-98h253v498q0 143 -85 264.5t-230 191.5q-145 71 -317 71t-318.5 -70.5t-231.5 -192t-81 -264.5zM316 498q-3 130 109 223t270 93q157 0 266.5 -92.5t112.5 -223.5q4 -129 -108.5 -222t-270.5 -93 q-156 0 -265.5 92t-113.5 223zM439 1209l147 -105l363 378l-183 132z" />
<glyph unicode="&#xe2;" d="M64 498q6 -222 183 -374t448 -152q104 0 206.5 34.5t172.5 91.5v-98h253v498q0 143 -85 264.5t-230 191.5q-145 71 -317 71t-318.5 -70.5t-231.5 -192t-81 -264.5zM257 1100h245l191 208l191 -208h247l-321 388h-233zM316 498q-3 130 109 223t270 93q157 0 266.5 -92.5 t112.5 -223.5q4 -129 -108.5 -222t-270.5 -93q-156 0 -265.5 92t-113.5 223z" />
<glyph unicode="&#xe3;" d="M64 498q6 -222 183 -374t448 -152q104 0 206.5 34.5t172.5 91.5v-98h253v498q0 143 -85 264.5t-230 191.5q-145 71 -317 71t-318.5 -70.5t-231.5 -192t-81 -264.5zM281 1143l15 56q25 96 109 147q83 50 179 25l244 -62q37 -7 73 11q33 21 41 58l175 -46l-13 -56 q-24 -95 -109 -143q-83 -51 -178 -26l-246 61q-37 10 -71 -9q-35 -21 -43 -61zM316 498q-3 130 109 223t270 93q157 0 266.5 -92.5t112.5 -223.5q4 -129 -108.5 -222t-270.5 -93q-156 0 -265.5 92t-113.5 223z" />
<glyph unicode="&#xe4;" d="M64 498q6 -222 183 -374t448 -152q104 0 206.5 34.5t172.5 91.5v-98h253v498q0 143 -85 264.5t-230 191.5q-145 71 -317 71t-318.5 -70.5t-231.5 -192t-81 -264.5zM314 1228q0 -53 39 -92t92.5 -39t92.5 39t39 92q0 54 -39 93t-92.5 39t-92.5 -39t-39 -93zM316 498 q-3 130 109 223t270 93q157 0 266.5 -92.5t112.5 -223.5q4 -129 -108.5 -222t-270.5 -93q-156 0 -265.5 92t-113.5 223zM812 1228q0 -53 39 -92t92.5 -39t92.5 39t39 92q0 54 -39 93t-92.5 39t-92.5 -39t-39 -93z" />
<glyph unicode="&#xe5;" d="M64 498q6 -222 183 -374t448 -152q104 0 206.5 34.5t172.5 91.5v-98h253v498q0 143 -85 264.5t-230 191.5q-145 71 -317 71t-318.5 -70.5t-231.5 -192t-81 -264.5zM316 498q-3 130 109 223t270 93q157 0 266.5 -92.5t112.5 -223.5q4 -129 -108.5 -222t-270.5 -93 q-156 0 -265.5 92t-113.5 223zM375 1365q-1 -72 41 -133.5t116.5 -97t159.5 -35.5q65 0 123.5 21.5t101 57t67.5 84.5t27 103q2 72 -41 133t-117 96t-161 35q-64 0 -122.5 -21t-100 -56t-67 -84t-27.5 -103zM543 1362q1 50 44 84.5t104 34.5q63 0 107.5 -34.5t42.5 -84.5 q-2 -48 -44.5 -83t-105.5 -35q-62 0 -106.5 35t-41.5 83z" />
<glyph unicode="&#xe7;" horiz-adv-x="1322" d="M64 498q-4 -142 81 -264t231.5 -192t318.5 -70q184 0 333 79.5t231 215.5l-240 73q-53 -72 -137 -114.5t-187 -42.5q-158 0 -270 93t-109 222q4 131 113 223.5t266 92.5q104 0 194.5 -43t138.5 -115l234 84q-76 128 -231 206.5t-336 78.5q-128 0 -244 -42t-199.5 -112.5 t-134 -167.5t-53.5 -205zM403 -450l152 -54l234 374l-189 68z" />
<glyph unicode="&#xe8;" horiz-adv-x="1389" d="M64 498q-4 -142 81 -263t231 -191t319 -72q222 -2 370.5 68t228.5 174l-239 74q-132 -116 -360 -105q-142 6 -247 77t-127 180h743h256q6 31 6 58q3 143 -81.5 264.5t-231.5 191.5t-318 70q-129 0 -244.5 -41.5t-199 -112t-134 -167.5t-53.5 -205zM337 596q41 96 138 157 t220 61q124 0 225.5 -61.5t136.5 -156.5h-720zM439 1480l183 132l327 -405l-147 -105z" />
<glyph unicode="&#xe9;" horiz-adv-x="1389" d="M64 498q-4 -142 81 -263t231 -191t319 -72q222 -2 370.5 68t228.5 174l-239 74q-132 -116 -360 -105q-142 6 -247 77t-127 180h743h256q6 31 6 58q3 143 -81.5 264.5t-231.5 191.5t-318 70q-129 0 -244.5 -41.5t-199 -112t-134 -167.5t-53.5 -205zM337 596q41 96 138 157 t220 61q124 0 225.5 -61.5t136.5 -156.5h-720zM439 1208l147 -105l363 378l-183 132z" />
<glyph unicode="&#xea;" horiz-adv-x="1389" d="M64 498q-4 -142 81 -263t231 -191t319 -72q222 -2 370.5 68t228.5 174l-239 74q-132 -116 -360 -105q-142 6 -247 77t-127 180h743h256q6 31 6 58q3 143 -81.5 264.5t-231.5 191.5t-318 70q-129 0 -244.5 -41.5t-199 -112t-134 -167.5t-53.5 -205zM257 1099h245l191 208 l191 -208h247l-321 388h-233zM337 596q41 96 138 157t220 61q124 0 225.5 -61.5t136.5 -156.5h-720z" />
<glyph unicode="&#xeb;" horiz-adv-x="1389" d="M64 498q-4 -142 81 -263t231 -191t319 -72q222 -2 370.5 68t228.5 174l-239 74q-132 -116 -360 -105q-142 6 -247 77t-127 180h743h256q6 31 6 58q3 143 -81.5 264.5t-231.5 191.5t-318 70q-129 0 -244.5 -41.5t-199 -112t-134 -167.5t-53.5 -205zM314 1230q0 -53 39 -92 t92.5 -39t92.5 39t39 92q0 54 -39 93t-92.5 39t-92.5 -39t-39 -93zM337 596q41 96 138 157t220 61q124 0 225.5 -61.5t136.5 -156.5h-720zM812 1230q0 -53 39 -92t92.5 -39t92.5 39t39 92q0 54 -39 93t-92.5 39t-92.5 -39t-39 -93z" />
<glyph unicode="&#xec;" horiz-adv-x="372" d="M-69 1480l183 132l327 -405l-147 -105zM60 0h252v994h-252v-994z" />
<glyph unicode="&#xed;" horiz-adv-x="372" d="M-69 1211l147 -105l363 378l-183 132zM62 0h252v994h-252v-994z" />
<glyph unicode="&#xee;" horiz-adv-x="372" d="M-251 1099h245l191 208l191 -208h247l-321 388h-233zM60 0h252v994h-252v-994z" />
<glyph unicode="&#xef;" horiz-adv-x="372" d="M-194 1230q0 -53 39 -92t92.5 -39t92.5 39t39 92q0 54 -39 93t-92.5 39t-92.5 -39t-39 -93zM60 0h252v994h-252v-994zM304 1230q0 -53 39 -92t92.5 -39t92.5 39t39 92q0 54 -39 93t-92.5 39t-92.5 -39t-39 -93z" />
<glyph unicode="&#xf1;" horiz-adv-x="1260" d="M60 0h254v497q0 131 91.5 222.5t222.5 91.5t222.5 -91.5t91.5 -222.5v-497h258v455q0 155 -76 286t-207 207t-286.5 76t-287 -76t-207.5 -207t-76 -286v-455zM223 1145l15 56q25 96 109 147q83 50 179 25l244 -62q37 -7 73 11q33 21 41 58l175 -46l-13 -56 q-24 -95 -109 -143q-83 -51 -178 -26l-246 61q-37 10 -71 -9q-35 -21 -43 -61z" />
<glyph unicode="&#xf2;" horiz-adv-x="1389" d="M63 498q-3 -143 81.5 -264.5t231.5 -191.5t318 -70q129 0 244.5 41.5t199.5 112.5t134 168t54 204q3 143 -81.5 264.5t-231.5 191.5t-319 70q-128 0 -244 -41.5t-199.5 -112t-133.5 -167.5t-54 -205zM316 498q3 131 112.5 223.5t265.5 92.5q158 0 270.5 -93t108.5 -223 q-3 -131 -112.5 -223.5t-266.5 -92.5t-269.5 93t-108.5 223zM439 1480l183 132l327 -405l-147 -105z" />
<glyph unicode="&#xf3;" horiz-adv-x="1389" d="M63 498q-3 -143 81.5 -264.5t231.5 -191.5t318 -70q129 0 244.5 41.5t199.5 112.5t134 168t54 204q3 143 -81.5 264.5t-231.5 191.5t-319 70q-128 0 -244 -41.5t-199.5 -112t-133.5 -167.5t-54 -205zM316 498q3 131 112.5 223.5t265.5 92.5q158 0 270.5 -93t108.5 -223 q-3 -131 -112.5 -223.5t-266.5 -92.5t-269.5 93t-108.5 223zM439 1205l147 -105l363 378l-183 132z" />
<glyph unicode="&#xf4;" horiz-adv-x="1389" d="M63 498q-3 -143 81.5 -264.5t231.5 -191.5t318 -70q129 0 244.5 41.5t199.5 112.5t134 168t54 204q3 143 -81.5 264.5t-231.5 191.5t-319 70q-128 0 -244 -41.5t-199.5 -112t-133.5 -167.5t-54 -205zM257 1099h245l191 208l191 -208h247l-321 388h-233zM316 498 q3 131 112.5 223.5t265.5 92.5q158 0 270.5 -93t108.5 -223q-3 -131 -112.5 -223.5t-266.5 -92.5t-269.5 93t-108.5 223z" />
<glyph unicode="&#xf5;" horiz-adv-x="1389" d="M63 498q-3 -143 81.5 -264.5t231.5 -191.5t318 -70q129 0 244.5 41.5t199.5 112.5t134 168t54 204q3 143 -81.5 264.5t-231.5 191.5t-319 70q-128 0 -244 -41.5t-199.5 -112t-133.5 -167.5t-54 -205zM281 1142l15 56q25 96 109 147q83 50 179 25l244 -62q37 -7 73 11 q33 21 41 58l175 -46l-13 -56q-24 -95 -109 -143q-83 -51 -178 -26l-246 61q-37 10 -71 -9q-35 -21 -43 -61zM316 498q3 131 112.5 223.5t265.5 92.5q158 0 270.5 -93t108.5 -223q-3 -131 -112.5 -223.5t-266.5 -92.5t-269.5 93t-108.5 223z" />
<glyph unicode="&#xf6;" horiz-adv-x="1389" d="M63 498q-3 -143 81.5 -264.5t231.5 -191.5t318 -70q129 0 244.5 41.5t199.5 112.5t134 168t54 204q3 143 -81.5 264.5t-231.5 191.5t-319 70q-128 0 -244 -41.5t-199.5 -112t-133.5 -167.5t-54 -205zM314 1230q0 -53 39 -92t92.5 -39t92.5 39t39 92q0 54 -39 93t-92.5 39 t-92.5 -39t-39 -93zM316 498q3 131 112.5 223.5t265.5 92.5q158 0 270.5 -93t108.5 -223q-3 -131 -112.5 -223.5t-266.5 -92.5t-269.5 93t-108.5 223zM812 1230q0 -53 39 -92t92.5 -39t92.5 39t39 92q0 54 -39 93t-92.5 39t-92.5 -39t-39 -93z" />
<glyph unicode="&#xf9;" horiz-adv-x="1260" d="M60 541v455h254v-497q0 -131 91.5 -222.5t222.5 -91.5t222.5 91.5t91.5 222.5v497h258v-455q0 -155 -76 -286t-207 -207t-286.5 -76t-287 76t-207.5 207t-76 286zM375 1479l183 132l327 -405l-147 -105z" />
<glyph unicode="&#xfa;" horiz-adv-x="1260" d="M60 541v455h254v-497q0 -131 91.5 -222.5t222.5 -91.5t222.5 91.5t91.5 222.5v497h258v-455q0 -155 -76 -286t-207 -207t-286.5 -76t-287 76t-207.5 207t-76 286zM375 1204l147 -105l363 378l-183 132z" />
<glyph unicode="&#xfb;" horiz-adv-x="1260" d="M60 541v455h254v-497q0 -131 91.5 -222.5t222.5 -91.5t222.5 91.5t91.5 222.5v497h258v-455q0 -155 -76 -286t-207 -207t-286.5 -76t-287 76t-207.5 207t-76 286zM193 1101h245l191 208l191 -208h247l-321 388h-233z" />
<glyph unicode="&#xfc;" horiz-adv-x="1260" d="M60 541v455h254v-497q0 -131 91.5 -222.5t222.5 -91.5t222.5 91.5t91.5 222.5v497h258v-455q0 -155 -76 -286t-207 -207t-286.5 -76t-287 76t-207.5 207t-76 286zM250 1232q0 -53 39 -92t92.5 -39t92.5 39t39 92q0 54 -39 93t-92.5 39t-92.5 -39t-39 -93zM748 1232 q0 -53 39 -92t92.5 -39t92.5 39t39 92q0 54 -39 93t-92.5 39t-92.5 -39t-39 -93z" />
<glyph unicode="&#xfd;" horiz-adv-x="1257" d="M60 540q0 -156 70 -286t195.5 -205.5t279.5 -75.5q195 0 340 117v-98q0 -136 -82.5 -225.5t-233.5 -89.5q-115 0 -192 53.5t-106 144.5l-238 -71q56 -151 198 -244t338 -93q255 0 411 150.5t156 374.5q0 171 0.5 497.5t0.5 504.5h-253v-496q0 -130 -91.5 -221.5 t-222 -91.5t-222 91.5t-91.5 221.5v496h-257v-454zM373 1202l147 -105l363 378l-183 132z" />
<glyph unicode="&#xff;" horiz-adv-x="1257" d="M60 540q0 -156 70 -286t195.5 -205.5t279.5 -75.5q195 0 340 117v-98q0 -136 -82.5 -225.5t-233.5 -89.5q-115 0 -192 53.5t-106 144.5l-238 -71q56 -151 198 -244t338 -93q255 0 411 150.5t156 374.5q0 171 0.5 497.5t0.5 504.5h-253v-496q0 -130 -91.5 -221.5 t-222 -91.5t-222 91.5t-91.5 221.5v496h-257v-454zM248 1230q0 -53 39 -92t92.5 -39t92.5 39t39 92q0 54 -39 93t-92.5 39t-92.5 -39t-39 -93zM746 1230q0 -53 39 -92t92.5 -39t92.5 39t39 92q0 54 -39 93t-92.5 39t-92.5 -39t-39 -93z" />
<glyph unicode="&#x178;" horiz-adv-x="1246" d="M60 994l436 -579v-415h253v415l437 579h-305l-259 -377l-257 377h-305zM237 1233q0 -53 39 -92t92.5 -39t92.5 39t39 92q0 54 -39 93t-92.5 39t-92.5 -39t-39 -93zM735 1233q0 -53 39 -92t92.5 -39t92.5 39t39 92q0 54 -39 93t-92.5 39t-92.5 -39t-39 -93z" />
<glyph unicode="&#x2c6;" horiz-adv-x="1450" d="M90 2339h405l231 273l229 -273h405l-398 553h-474z" />
<glyph unicode="&#x2dc;" horiz-adv-x="836" d="M0 1041l15 56q25 96 109 147q83 50 179 25l244 -62q37 -7 73 11q33 21 41 58l175 -46l-13 -56q-24 -95 -109 -143q-83 -51 -178 -26l-246 61q-37 10 -71 -9q-35 -21 -43 -61z" />
<glyph unicode="&#x2000;" horiz-adv-x="1446" />
<glyph unicode="&#x2001;" horiz-adv-x="2892" />
<glyph unicode="&#x2002;" horiz-adv-x="1446" />
<glyph unicode="&#x2003;" horiz-adv-x="2892" />
<glyph unicode="&#x2004;" horiz-adv-x="964" />
<glyph unicode="&#x2005;" horiz-adv-x="723" />
<glyph unicode="&#x2006;" horiz-adv-x="482" />
<glyph unicode="&#x2007;" horiz-adv-x="482" />
<glyph unicode="&#x2008;" horiz-adv-x="361" />
<glyph unicode="&#x2009;" horiz-adv-x="578" />
<glyph unicode="&#x200a;" horiz-adv-x="160" />
<glyph unicode="&#x202f;" horiz-adv-x="578" />
<glyph unicode="&#x205f;" horiz-adv-x="723" />
<glyph unicode="&#x25fc;" horiz-adv-x="995" d="M0 0v995h995v-995h-995z" />
</font>
</defs>
</svg>
